<svg viewBox="0 0 100 100" xmlns="http://www.w3.org/2000/svg"><path d="M0 0h100v100H0z"/><path d="M49.91 21.023a6.874 6.874 0 0 0-3.025.994 5.467 5.467 0 0 0-2.588 4.689 1.407 1.407 0 1 0 2.814 0c0-1.26.56-1.871 1.242-2.288l.002-.003c1.078-.662 2.474-.783 3.603-.298l.008.002c1.132.478 2.256 1.234 2.35 3.65.046 1.392-.327 2.228-.835 2.857-.51.63-1.216 1.049-1.86 1.293a1.508 1.508 0 0 0-.047.019c-1.57.66-2.605 2.197-2.605 3.886v2.98c0 .504.269.97.705 1.22l30 23.01v.003c.753.44.87 1.075.687 1.735-.183.66-.63 1.158-1.493 1.158H21.152c-.904 0-1.336-.497-1.514-1.15-.178-.65-.049-1.293.699-1.736l28.29-18.697a1.407 1.407 0 1 0-1.233-2.53l-28.38 18.74a1.406 1.406 0 0 0-.095.05c-1.831 1.076-2.465 3.187-1.996 4.91.469 1.725 2.092 3.227 4.229 3.227h57.714c2.12 0 3.727-1.501 4.204-3.218.478-1.717-.137-3.84-1.972-4.918l-.011-.005-29.305-22.61v-2.17c0-.562.315-1.052.884-1.292l-.047.019c.987-.375 2.138-1.026 3.05-2.155.912-1.128 1.524-2.738 1.458-4.723v-.006c-.13-3.43-2.271-5.377-4.064-6.137a6.618 6.618 0 0 0-3.154-.505z" fill="#fff"/></svg>