<svg xmlns="http://www.w3.org/2000/svg" viewBox="0 0 100 100"><path d="M0 0h100v100H0z"/><path d="M49.91 23.597a6.874 6.874 0 00-3.025.994 5.467 5.467 0 00-2.588 4.689 1.407 1.407 0 001.407 1.407 1.407 1.407 0 001.407-1.407c0-1.26.56-1.871 1.242-2.288a1.407 1.407 0 00.002-.003c1.078-.662 2.474-.783 3.603-.298a1.407 1.407 0 00.008.002c1.132.478 2.256 1.234 2.35 3.651.046 1.391-.327 2.227-.835 2.856-.51.63-1.216 1.049-1.86 1.293a1.407 1.407 0 00-.047.019c-1.57.66-2.605 2.197-2.605 3.886v2.981a1.407 1.407 0 00.705 1.22l40 23.01v.002c.753.441.87 1.075.687 1.735-.183.66-.63 1.158-1.493 1.158H11.152c-.904 0-1.336-.497-1.514-1.15-.178-.65-.049-1.293.699-1.736l38.29-18.697a1.407 1.407 0 00.649-1.882 1.407 1.407 0 00-1.882-.647l-38.38 18.74a1.407 1.407 0 00-.095.05c-1.831 1.075-2.465 3.186-1.996 4.91.469 1.724 2.092 3.226 4.229 3.226h77.714c2.12 0 3.727-1.501 4.204-3.218.478-1.717-.137-3.84-1.972-4.918a1.407 1.407 0 00-.011-.005l-39.305-22.61v-2.17c0-.562.315-1.052.884-1.292l-.047.019c.987-.375 2.138-1.026 3.05-2.155.912-1.128 1.524-2.738 1.458-4.723a1.407 1.407 0 000-.006c-.13-3.43-2.271-5.377-4.064-6.137a6.618 6.618 0 00-3.154-.505z" fill="#fff"/></svg>